<?xml version="1.0" encoding="utf-8"?>
<!-- Generator: Adobe Illustrator 18.1.0, SVG Export Plug-In . SVG Version: 6.00 Build 0)  -->
<svg version="1.1" id="Layer_1" xmlns="http://www.w3.org/2000/svg" xmlns:xlink="http://www.w3.org/1999/xlink" x="0px" y="0px"
	 viewBox="0 0 150 150" enable-background="new 0 0 150 150" xml:space="preserve">
<g>
	<path fill="#696A6C" d="M131.8,93.5c0.3-1.7,0.5-3.5,0.6-5.3l-5.7-1.6c0-0.7,0.1-1.5,0.1-2.2c0-1.4-0.1-2.7-0.2-4l5.7-1.9
		c-0.2-1.8-0.5-3.5-0.8-5.3l-5.9-0.1c-0.5-2-1-4-1.7-6l4.9-3.3c-0.6-1.7-1.3-3.3-2.1-4.9l-5.7,1.5c-1-1.8-2-3.6-3.2-5.3l3.9-4.5
		c-1-1.4-2.2-2.8-3.3-4.2l-5.2,2.9c-1.4-1.5-2.9-3-4.5-4.3l2.6-5.4c-1.4-1.1-2.8-2.2-4.3-3.2l-4.2,4.2c-0.5-0.3-1-0.6-1.5-0.9
		c-3.2,3.1-7.3,5.6-12.5,6.9c-9.7,2.3-16.2,6.1-19.9,8.6c-2.2,1.5-3.3,2.6-3.3,2.6s-0.2-0.4-0.4-1.2c-1.2-4.4-4-20.4,17.5-24.3
		c0.6-0.1,1.2-0.2,1.7-0.3l-0.3-4.5c-1.7-0.3-3.5-0.5-5.3-0.6l-1.6,5.7c-0.7,0-1.5-0.1-2.2-0.1c-1.3,0-2.7,0.1-4,0.2l-1.9-5.7
		c-1.8,0.2-3.5,0.5-5.3,0.8L63.8,34c-2,0.5-4,1-6,1.7l-3.3-4.9c-1.7,0.6-3.3,1.3-4.9,2.1l1.5,5.7c-1.8,1-3.6,2-5.3,3.2l-4.5-3.9
		c-1.4,1-2.8,2.2-4.2,3.3l2.9,5.2c-1.5,1.4-3,2.9-4.3,4.5l-5.4-2.6c-1.1,1.4-2.2,2.8-3.2,4.3l4.2,4.2c-1.1,1.7-2.1,3.5-3,5.4
		L22.5,61c-0.7,1.6-1.4,3.3-1.9,4.9l5.1,3c-0.6,2-1.1,4-1.5,6l-5.9,0.4c-0.3,1.7-0.5,3.5-0.6,5.3l5.7,1.6c0,0.7-0.1,1.5-0.1,2.2
		c0,1.3,0.1,2.7,0.2,4l-5.7,1.9c0.2,1.8,0.5,3.5,0.8,5.3l5.9,0.1c0.5,2,1,4,1.7,6l-4.9,3.3c0.6,1.7,1.3,3.3,2.1,4.9l5.7-1.5
		c1,1.8,2,3.6,3.2,5.3l-3.9,4.5c1,1.4,2.2,2.8,3.3,4.2l5.2-2.9c0.7,0.8,1.5,1.5,2.2,2.3l0.2-40.4l7.7,7.5l10.3,10v0l0.3-18.5
		l17.7,17.5L76,80.8l18.1,17.6l0.1,0.1l0-0.4l0.3-18.1l4.2,4.5l9.8,10.3l4.2,4.4v20.5c0.5-0.6,1-1.1,1.6-1.7l5.4,2.6
		c1.1-1.4,2.2-2.8,3.2-4.3l-4.2-4.2c1.1-1.7,2.1-3.5,3-5.4l5.8,1.2c0.7-1.6,1.4-3.3,1.9-4.9l-5.1-3c0.6-2,1.1-4,1.5-6L131.8,93.5z
		 M61.6,80.4l0.9-15.2l0.4-6.7h5.6l0.2,3.8l1.2,26.4L61.6,80.4z"/>
	<path fill="#97A822" d="M84.4,32.2c-0.6,0.1-1.1,0.2-1.7,0.3C61.2,36.4,64,52.4,65.2,56.8c0.2,0.7,0.4,1.2,0.4,1.2s1.1-1.1,3.3-2.6
		c3.6-2.5,10.2-6.2,19.9-8.6c5.3-1.3,9.3-3.8,12.5-6.9c9.1-8.8,10.7-21.9,10.7-21.9S107.8,27.6,84.4,32.2z"/>
</g>
</svg>
