<?xml version="1.0" standalone="no"?>
<!DOCTYPE svg PUBLIC "-//W3C//DTD SVG 20010904//EN"
 "http://www.w3.org/TR/2001/REC-SVG-20010904/DTD/svg10.dtd">
<svg version="1.0" xmlns="http://www.w3.org/2000/svg"
 width="2550.000000pt" height="1690.000000pt" viewBox="0 0 2550.000000 1690.000000"
 preserveAspectRatio="xMidYMid meet">
<metadata>
Created by potrace 1.14, written by Peter Selinger 2001-2017
</metadata>
<g transform="translate(0.000000,1690.000000) scale(0.100000,-0.100000)"
fill="#000000" stroke="none">
<path d="M1021 16826 c-9 -11 -13 -40 -12 -85 l2 -69 -38 -6 c-21 -4 -58 -14
-82 -23 -40 -16 -44 -15 -55 0 -59 87 -67 95 -89 93 -30 -4 -127 -66 -127 -82
0 -16 19 -67 28 -74 4 -3 13 -16 20 -29 12 -21 11 -27 -19 -65 -18 -22 -39
-45 -46 -49 -7 -5 -11 -12 -9 -16 10 -16 -50 -3 -92 19 -38 20 -46 21 -68 10
-27 -15 -74 -88 -71 -111 3 -18 38 -59 52 -59 5 -1 23 -12 40 -25 28 -23 29
-26 17 -58 -7 -18 -12 -42 -12 -53 0 -39 -22 -53 -83 -55 -36 -2 -62 -8 -70
-17 -6 -8 -13 -44 -14 -79 -2 -57 1 -65 22 -79 15 -10 42 -14 75 -13 56 3 69
-8 78 -61 12 -75 16 -72 -78 -74 l-85 -1 -2 -320 c-2 -242 1 -321 10 -327 7
-4 244 -6 527 -3 283 2 653 5 822 6 275 1 307 3 307 18 0 9 1 25 3 36 1 11 1
149 0 308 l-2 287 -90 0 c-102 0 -101 -1 -76 82 8 25 12 48 10 51 -3 2 0 15 6
29 10 21 18 24 62 24 38 0 54 5 64 19 17 23 18 55 3 55 -6 0 -9 -6 -6 -13 11
-29 -11 -42 -70 -42 l-58 0 -14 -60 c-8 -33 -21 -79 -29 -102 l-15 -43 -87 0
c-48 0 -89 3 -93 6 -3 4 3 24 13 45 11 21 20 46 20 57 0 10 5 23 11 29 15 15
15 171 0 228 -8 28 -21 58 -29 68 -8 9 -12 17 -8 17 10 0 -31 67 -68 110 -109
128 -320 197 -481 156 -106 -27 -193 -73 -258 -138 -48 -48 -88 -109 -75 -114
2 -1 -4 -10 -14 -20 -14 -16 -29 -58 -45 -124 -13 -56 -3 -173 22 -240 32 -89
39 -81 -66 -78 l-93 3 -14 50 c-30 111 -20 100 -92 101 -36 1 -71 2 -78 3 -9
1 -12 19 -10 69 l3 67 72 0 c40 1 74 3 76 5 3 3 7 23 10 45 3 22 13 60 22 84
18 52 13 62 -49 85 -55 21 -84 59 -64 84 7 9 18 23 23 30 41 54 43 54 113 17
l66 -35 15 22 c9 12 38 44 64 71 l48 48 -40 59 c-37 53 -38 59 -25 79 15 21
83 61 104 61 13 0 44 -32 48 -50 2 -8 12 -27 24 -42 14 -21 25 -27 37 -22 9 4
50 17 91 29 l75 23 1 64 c1 94 4 98 68 98 30 0 66 -4 80 -10 20 -7 24 -6 19 5
-6 18 5 15 -84 21 -61 5 -78 3 -88 -10z m428 -511 c15 -6 14 -7 -1 -16 -25
-14 -23 -32 2 -24 17 5 20 2 21 -22 1 -15 1 -31 1 -34 -1 -4 -2 -49 -3 -100
-1 -52 -3 -99 -6 -104 -4 -12 -43 -12 -61 -1 -7 4 -18 3 -25 -2 -15 -12 -67
-13 -67 -1 0 13 -28 11 -32 -3 -3 -7 -14 -9 -30 -5 l-25 7 0 117 c0 79 -4 118
-12 121 -16 5 -14 22 4 22 8 0 15 5 15 11 0 6 9 9 20 6 26 -7 35 9 13 22 -17
10 -17 10 0 11 9 0 17 -4 17 -10 0 -5 9 -10 20 -10 11 0 19 3 19 8 -1 4 -1 9
0 12 1 7 109 3 130 -5z m-615 -21 c9 -8 16 -12 16 -8 0 3 7 1 15 -6 10 -9 15
-9 15 -1 0 6 4 11 10 11 5 0 9 -10 7 -22 -2 -18 4 -24 26 -26 19 -2 27 -8 24
-17 -3 -7 -2 -16 3 -21 9 -9 14 -77 12 -151 -2 -53 -16 -49 -57 15 l-30 47 -3
-57 c-2 -43 -7 -58 -17 -58 -16 0 -20 16 -16 64 2 16 -3 40 -10 52 -12 24 -12
24 -27 3 -8 -11 -14 -42 -14 -70 1 -42 -2 -50 -16 -47 -12 2 -17 14 -18 38 -1
19 -3 38 -4 43 -1 4 -3 11 -4 16 -3 21 -19 25 -31 7 -9 -12 -12 -33 -8 -62 5
-44 5 -44 -26 -44 -30 0 -32 2 -27 33 3 17 8 49 11 70 9 67 86 200 110 191 8
-4 15 -1 15 5 0 16 26 13 44 -5z m206 -2 c0 -4 9 -8 19 -9 11 -1 29 -10 40
-20 23 -19 25 -20 71 -22 l29 -1 -2 -107 c-2 -84 -5 -108 -16 -108 -8 0 -19 9
-25 20 -6 11 -21 33 -34 48 l-22 29 2 -43 c4 -54 -11 -59 -40 -13 -28 42 -36
38 -37 -19 0 -30 -4 -43 -16 -45 -20 -4 -28 25 -24 93 2 28 4 63 4 78 1 16 5
26 11 22 6 -3 7 1 4 9 -3 9 -12 16 -20 16 -8 0 -14 5 -14 10 0 6 10 8 23 5 24
-6 56 28 37 40 -13 8 -13 25 0 25 6 0 10 -4 10 -8z m514 -50 c14 -21 26 -44
26 -51 0 -7 3 -10 8 -8 4 3 8 -7 8 -21 1 -15 8 -55 16 -89 l15 -63 -46 -1
c-25 0 -56 -2 -68 -3 -22 -3 -23 1 -24 68 -3 168 3 205 32 206 4 0 18 -17 33
-38z m41 -344 c-4 -13 -16 -47 -27 -75 l-20 -53 -414 0 -414 0 -20 42 c-11 22
-22 56 -26 75 l-6 33 467 0 466 0 -6 -22z m-1007 -311 l3 -97 -26 0 c-21 0
-25 5 -26 33 l-1 32 -7 -30 c-5 -25 -11 -30 -36 -30 -27 0 -31 4 -36 35 l-6
35 -4 -35 c-3 -27 -9 -36 -27 -38 -23 -3 -23 -3 -20 95 l3 98 33 3 c24 2 34
-1 38 -15 3 -10 8 -25 11 -33 4 -8 6 -24 5 -35 -1 -11 4 -4 9 15 23 76 26 79
56 71 28 -7 28 -8 31 -104z m430 75 c2 -12 8 -22 13 -22 5 0 9 -7 9 -16 0 -13
4 -12 28 4 20 15 33 17 51 10 50 -18 67 -72 29 -88 -18 -7 -19 -9 -5 -9 20 -1
23 -21 5 -39 -14 -14 -84 -16 -93 -2 -4 6 -12 6 -24 -2 -10 -6 -30 -8 -44 -4
-22 5 -25 10 -21 38 2 18 -1 47 -8 64 -10 27 -8 36 11 63 25 35 44 36 49 3z
m719 -40 c11 -14 15 -14 31 1 25 22 75 22 95 -1 21 -23 20 -98 0 -118 -18 -18
-51 -18 -85 0 -24 13 -32 13 -57 0 -32 -16 -73 -11 -92 12 -9 11 -14 10 -29
-8 -26 -33 -50 -18 -51 34 -1 24 -1 47 0 51 1 5 -4 7 -11 5 -7 -3 -15 -26 -18
-54 -4 -41 -8 -49 -25 -49 -17 0 -20 8 -23 49 -5 85 -1 92 63 94 l55 1 14 -47
15 -47 0 37 c1 30 6 40 27 51 31 16 74 11 91 -11z m-1028 9 c8 -5 15 -34 18
-74 l5 -65 -61 -1 c-56 0 -61 2 -67 24 -3 13 -1 32 5 43 6 11 8 28 5 36 -14
36 55 62 95 37z m232 -21 c4 -14 7 -46 8 -72 1 -45 -1 -48 -24 -48 -23 0 -25
3 -25 49 0 50 -15 75 -30 51 -4 -7 -7 -30 -6 -51 2 -30 -2 -40 -16 -45 -36
-11 -38 -1 -29 133 1 9 19 12 58 10 52 -2 58 -4 64 -27z m369 10 c5 -10 10
-30 10 -44 0 -25 1 -25 20 -8 17 14 18 18 5 20 -38 8 3 52 49 52 45 0 55 -15
58 -86 l3 -59 -40 -1 c-64 -1 -85 6 -86 30 -1 19 -2 18 -8 -4 -4 -15 -15 -26
-29 -28 -20 -3 -22 1 -22 47 0 47 -13 72 -28 56 -4 -4 -7 -28 -7 -53 0 -43 -2
-47 -25 -47 -23 0 -25 4 -28 59 -2 32 -1 64 2 71 3 8 25 13 60 14 45 0 58 -3
66 -19z m645 -317 c1 -79 -1 -143 -4 -144 -44 -5 -95 -7 -191 -7 -133 1 -527
0 -1058 -2 -206 -1 -376 0 -378 3 -6 6 -6 276 0 286 4 5 347 8 818 8 l812 -2
1 -142z"/>
</g>
</svg>
