<?xml version='1.0' encoding='iso-8859-1'?>
<svg version="1.1" xmlns="http://www.w3.org/2000/svg" viewBox="0 0 490 490" xmlns:xlink="http://www.w3.org/1999/xlink" enable-background="new 0 0 490 490">
  <g>
    <g>
      <path d="m488.8,487.8v-253.3l-86.5,88.6v-88.6l-86.5,88.6v-88.6l-91.7,94.9-10.4-212.6h-76.1l-10.4,216.8h-24l-10.4-216.8h-75.1l-17.7,371.1h490v-0.1l-1.2,0zm-18.7-20.8h-448.2l15.7-329.4h36.5l10.4,216.8h65.7l10.4-216.8h35.4l10.4,216.9h24l66.7-68.8v68.8h19.8l66.7-68.8v68.8h19.8l66.7-68.8v181.3z"/>
      <rect width="33.4" x="415.9" y="375.3" height="20.8"/>
      <rect width="33.4" x="328.4" y="375.3" height="20.8"/>
      <rect width="33.4" x="240.8" y="375.3" height="20.8"/>
      <polygon points="186.6,50.1 214.8,15.7 199.1,2.1 165.8,42.8 165.8,101.2 186.6,101.2   "/>
      <polygon points="59.5,50.1 88.6,15.7 72,2.1 38.6,42.8 38.6,101.2 59.5,101.2   "/>
    </g>
  </g>
</svg>
