<?xml version="1.0" encoding="iso-8859-1"?>
<!-- Generator: Adobe Illustrator 19.0.0, SVG Export Plug-In . SVG Version: 6.00 Build 0)  -->
<svg version="1.1" id="Layer_1" xmlns="http://www.w3.org/2000/svg" xmlns:xlink="http://www.w3.org/1999/xlink" x="0px" y="0px"
	 viewBox="0 0 512 512" style="enable-background:new 0 0 512 512;" xml:space="preserve">
<path style="fill:#C7CBC7;" d="M220.69,169.048h70.621v-35.31H220.69V169.048z"/>
<path style="fill:#ECBA16;" d="M512,98.428H353.103l-44.138,35.31H220.69v-35.31h70.621l44.138-35.31H512V98.428z"/>
<path style="fill:#BC9119;" d="M273.655,98.428h-35.31V80.772c0-9.71,7.945-17.655,17.655-17.655c9.71,0,17.655,7.945,17.655,17.655
	V98.428z"/>
<path style="fill:#7FABDA;" d="M69.738,438.29L69.738,438.29c-14.124,14.124-37.959,14.124-52.083,0
	c-14.124-14.124-14.124-37.076,0-56.497L44.138,345.6l25.6,37.076C84.745,404.745,84.745,424.166,69.738,438.29"/>
<path style="fill:#C7CBC7;" d="M335.448,186.703V310.29h158.897c9.71,0,17.655-7.945,17.655-17.655v-88.276
	c0-9.71-7.945-17.655-17.655-17.655H335.448z"/>
<g>
	<path style="fill:#949493;" d="M423.724,230.841h-88.276c-5.297,0-8.828-3.531-8.828-8.828s3.531-8.828,8.828-8.828h88.276
		c5.297,0,8.828,3.531,8.828,8.828S429.021,230.841,423.724,230.841"/>
	<path style="fill:#949493;" d="M467.862,222.014c0-5.297-3.531-8.828-8.828-8.828s-8.828,3.531-8.828,8.828
		s3.531,8.828,8.828,8.828S467.862,227.31,467.862,222.014"/>
	<path style="fill:#949493;" d="M317.793,327.945H194.207c-9.71,0-17.655-7.945-17.655-17.655V186.703
		c0-9.71,7.945-17.655,17.655-17.655h123.586c9.71,0,17.655,7.945,17.655,17.655V310.29
		C335.448,320,327.503,327.945,317.793,327.945"/>
	<path style="fill:#949493;" d="M494.345,213.186c-5.297,0-8.828,3.531-8.828,8.828s3.531,8.828,8.828,8.828H512v-17.655H494.345z"
		/>
</g>
<path style="fill:#C7CBC7;" d="M17.655,186.703C7.945,186.703,0,194.648,0,204.359v88.276c0,9.71,7.945,17.655,17.655,17.655H35.31
	v-35.31c0-5.297,3.531-8.828,8.828-8.828h26.483v-26.483c0-5.297,3.531-8.828,8.828-8.828h35.31c5.297,0,8.828,3.531,8.828,8.828
	s-3.531,8.828-8.828,8.828H88.276v26.483c0,5.297-3.531,8.828-8.828,8.828H52.966v26.483h123.586V186.703H17.655z"/>
<path style="fill:#7FABDA;" d="M79.448,283.807c5.297,0,8.828-3.531,8.828-8.828v-26.483h26.483c5.297,0,8.828-3.531,8.828-8.828
	s-3.531-8.828-8.828-8.828h-35.31c-5.297,0-8.828,3.531-8.828,8.828v26.483H44.138c-5.297,0-8.828,3.531-8.828,8.828v35.31h17.655
	v-26.483H79.448z"/>
<g>
</g>
<g>
</g>
<g>
</g>
<g>
</g>
<g>
</g>
<g>
</g>
<g>
</g>
<g>
</g>
<g>
</g>
<g>
</g>
<g>
</g>
<g>
</g>
<g>
</g>
<g>
</g>
<g>
</g>
</svg>
