<?xml version="1.0" encoding="iso-8859-1"?>
<!-- Generator: Adobe Illustrator 19.0.0, SVG Export Plug-In . SVG Version: 6.00 Build 0)  -->
<svg version="1.1" id="Capa_1" xmlns="http://www.w3.org/2000/svg" xmlns:xlink="http://www.w3.org/1999/xlink" x="0px" y="0px"
	 viewBox="0 0 512 512" style="enable-background:new 0 0 512 512;" xml:space="preserve">
<g>
	<g>
		<path d="M265.801,410.86c-0.12-0.63-0.32-1.26-0.57-1.87c-0.25-0.6-0.56-1.18-0.92-1.72c-0.36-0.55-0.78-1.06-1.24-1.52
			c-0.46-0.46-0.97-0.88-1.52-1.25c-0.54-0.36-1.12-0.67-1.73-0.92c-0.6-0.25-1.23-0.441-1.87-0.57c-3.24-0.65-6.7,0.41-9.02,2.74
			c-0.46,0.46-0.88,0.97-1.24,1.52c-0.36,0.54-0.67,1.12-0.92,1.72c-0.25,0.61-0.45,1.24-0.57,1.87c-0.13,0.65-0.2,1.31-0.2,1.96
			c0,2.63,1.07,5.21,2.93,7.07s4.44,2.93,7.07,2.93c0.65,0,1.31-0.07,1.95-0.2s1.27-0.32,1.87-0.57c0.61-0.25,1.19-0.56,1.73-0.92
			c0.55-0.36,1.06-0.78,1.52-1.24c1.86-1.86,2.93-4.44,2.93-7.07C266.001,412.17,265.931,411.51,265.801,410.86z"/>
	</g>
</g>
<g>
	<g>
		<path d="M306.187,394c5.523,0,10-4.477,10-10v-28.49c71.343-24.941,122.663-92.915,122.663-172.66
			C438.851,82.026,356.825,0,256.001,0S73.151,82.026,73.151,182.85c0,79.746,51.32,147.72,122.663,172.66V384
			c0,5.523,4.477,10,10,10h11.794v43.272h-74.999c-5.523,0-10,4.477-10,10V502c0,5.523,4.477,10,10,10h226.784
			c5.523,0,10-4.477,10-10v-54.728c0-5.523-4.477-10-10-10h-74.999V394H306.187z M217.608,492h-64.999v-34.728h64.999V492z
			 M213.636,340.098c-1.36-0.367-2.715-0.751-4.066-1.154c-67.246-20.039-116.42-82.427-116.42-156.094
			C93.151,93.054,166.206,20,256.001,20s162.85,73.054,162.85,162.85c0,73.667-49.174,136.056-116.417,156.094
			c-1.35,0.402-2.706,0.787-4.065,1.154c-0.412,0.111-0.822,0.227-1.234,0.335c-1.656,0.433-3.319,0.838-4.988,1.217
			c-0.425,0.097-0.853,0.186-1.279,0.279c-1.39,0.304-2.784,0.591-4.183,0.858c-0.418,0.08-0.835,0.164-1.255,0.241
			c-1.713,0.314-3.432,0.602-5.156,0.86c-0.358,0.054-0.719,0.1-1.077,0.151c-1.461,0.209-2.925,0.398-4.393,0.567
			c-0.432,0.05-0.863,0.102-1.296,0.149c-1.76,0.189-3.523,0.354-5.29,0.486c-0.259,0.019-0.519,0.031-0.778,0.049
			c-1.544,0.108-3.091,0.191-4.64,0.255c-0.473,0.02-0.947,0.038-1.421,0.054c-1.79,0.058-3.581,0.098-5.376,0.098
			c-1.795,0-3.587-0.04-5.376-0.098c-0.474-0.016-0.948-0.035-1.421-0.054c-1.549-0.064-3.096-0.147-4.64-0.255
			c-0.259-0.018-0.52-0.03-0.778-0.049c-1.768-0.132-3.531-0.297-5.29-0.486c-0.433-0.046-0.864-0.099-1.296-0.149
			c-1.468-0.169-2.932-0.358-4.393-0.567c-0.359-0.051-0.719-0.098-1.077-0.151c-1.724-0.258-3.443-0.547-5.156-0.86
			c-0.419-0.077-0.836-0.161-1.255-0.241c-1.398-0.268-2.792-0.554-4.183-0.858c-0.426-0.094-0.854-0.183-1.279-0.279
			c-1.669-0.379-3.332-0.785-4.988-1.217C214.457,340.325,214.047,340.209,213.636,340.098z M266.001,492v-40.516
			c0-5.523-4.477-10-10-10s-10,4.477-10,10V492h-8.393v-98h36.785v98H266.001z M359.393,457.272V492h-64.999v-34.728H359.393z
			 M215.812,374v-12.751h0.003c0.407,0.092,0.816,0.169,1.223,0.258c1.019,0.222,2.04,0.44,3.066,0.645
			c0.598,0.12,1.197,0.232,1.796,0.345c0.991,0.188,1.984,0.37,2.98,0.541c0.615,0.106,1.231,0.208,1.848,0.307
			c0.986,0.159,1.974,0.31,2.965,0.454c0.624,0.09,1.247,0.179,1.872,0.263c0.992,0.133,1.987,0.255,2.984,0.372
			c0.623,0.073,1.245,0.148,1.868,0.214c1.009,0.108,2.022,0.202,3.036,0.294c0.612,0.055,1.223,0.114,1.835,0.163
			c1.043,0.083,2.09,0.151,3.138,0.217c0.585,0.037,1.169,0.08,1.754,0.112c1.131,0.06,2.267,0.101,3.403,0.141
			c0.501,0.017,1,0.044,1.502,0.057c1.633,0.043,3.272,0.068,4.915,0.068c1.643,0,3.282-0.024,4.915-0.068
			c0.501-0.013,1.001-0.04,1.502-0.057c1.136-0.04,2.272-0.081,3.403-0.141c0.586-0.031,1.17-0.075,1.755-0.112
			c1.048-0.066,2.095-0.133,3.138-0.217c0.612-0.049,1.223-0.108,1.835-0.163c1.014-0.092,2.027-0.186,3.036-0.294
			c0.624-0.067,1.246-0.141,1.868-0.214c0.997-0.117,1.992-0.239,2.984-0.372c0.625-0.084,1.248-0.172,1.872-0.263
			c0.991-0.143,1.979-0.295,2.964-0.454c0.617-0.1,1.233-0.201,1.849-0.307c0.996-0.172,1.989-0.353,2.979-0.541
			c0.599-0.113,1.198-0.225,1.796-0.345c1.026-0.205,2.046-0.423,3.066-0.645c0.407-0.089,0.817-0.166,1.223-0.258V374H215.812z"/>
	</g>
</g>
<g>
	<g>
		<path d="M256.001,40.89c-78.277,0-141.96,63.683-141.96,141.96c0,40.516,17.381,79.204,47.688,106.146
			c25.995,23.095,59.475,35.814,94.272,35.814c8.699,0,17.316-0.795,25.755-2.348c23.109-4.254,44.876-14.198,63.325-29.075
			c1.762-1.421,3.495-2.883,5.194-4.393c30.305-26.94,47.686-65.628,47.686-106.144C397.961,104.573,334.278,40.89,256.001,40.89z
			 M327.367,281.752c-1.188,0.858-2.387,1.7-3.602,2.512c-0.004,0.003-0.008,0.005-0.013,0.008c-1.212,0.81-2.44,1.591-3.677,2.355
			c-0.184,0.114-0.367,0.229-0.551,0.342c-1.186,0.724-2.385,1.425-3.593,2.107c-0.23,0.13-0.461,0.259-0.692,0.387
			c-1.216,0.676-2.442,1.334-3.679,1.967c-0.177,0.091-0.355,0.178-0.533,0.267c-1.244,0.629-2.497,1.24-3.762,1.826
			c-0.077,0.036-0.153,0.073-0.229,0.109c-1.29,0.594-2.593,1.16-3.902,1.708c-0.229,0.096-0.457,0.193-0.686,0.288
			c-1.269,0.522-2.547,1.022-3.832,1.502c-0.248,0.092-0.496,0.182-0.744,0.273c-1.312,0.479-2.63,0.94-3.957,1.374
			c-0.152,0.05-0.305,0.095-0.456,0.145c-1.301,0.419-2.61,0.818-3.926,1.193c-0.147,0.042-0.293,0.087-0.441,0.129
			c-1.347,0.379-2.703,0.73-4.064,1.063c-0.256,0.063-0.512,0.126-0.768,0.187c-1.338,0.318-2.682,0.615-4.032,0.887
			c-0.246,0.05-0.493,0.096-0.739,0.145c-1.396,0.273-2.797,0.529-4.205,0.754c-0.093,0.015-0.187,0.027-0.281,0.042
			c-1.379,0.217-2.764,0.407-4.152,0.577c-0.194,0.024-0.388,0.051-0.583,0.073c-1.39,0.163-2.786,0.299-4.185,0.414
			c-0.266,0.022-0.532,0.044-0.799,0.064c-1.392,0.106-2.788,0.19-4.187,0.249c-0.227,0.01-0.454,0.015-0.681,0.023
			c-1.468,0.053-2.939,0.087-4.414,0.087c-1.476,0.001-2.946-0.033-4.415-0.086c-0.227-0.008-0.454-0.014-0.681-0.023
			c-1.399-0.058-2.795-0.143-4.187-0.249c-0.266-0.02-0.533-0.042-0.799-0.064c-1.399-0.116-2.794-0.251-4.185-0.414
			c-0.195-0.023-0.388-0.05-0.583-0.073c-1.389-0.17-2.774-0.36-4.153-0.577c-0.093-0.015-0.187-0.027-0.279-0.042
			c-1.408-0.225-2.81-0.481-4.206-0.754c-0.245-0.048-0.491-0.095-0.736-0.144c-1.351-0.273-2.696-0.57-4.035-0.888
			c-0.255-0.061-0.509-0.123-0.763-0.186c-1.363-0.333-2.721-0.685-4.07-1.065c-0.144-0.041-0.287-0.085-0.431-0.126
			c-1.319-0.377-2.632-0.776-3.937-1.197c-0.15-0.048-0.301-0.094-0.451-0.143c-1.33-0.435-2.65-0.897-3.964-1.377
			c-0.245-0.089-0.49-0.178-0.734-0.269c-1.289-0.48-2.571-0.982-3.843-1.506c-0.224-0.092-0.447-0.188-0.671-0.281
			c-1.314-0.551-2.622-1.118-3.917-1.715c-0.069-0.032-0.138-0.066-0.207-0.098c-1.275-0.59-2.538-1.206-3.792-1.84
			c-0.17-0.086-0.342-0.17-0.511-0.257c-1.242-0.636-2.473-1.296-3.694-1.975c-0.226-0.126-0.451-0.252-0.676-0.379
			c-1.212-0.684-2.415-1.387-3.605-2.114c-0.18-0.11-0.359-0.223-0.538-0.334c-2.488-1.537-4.925-3.166-7.306-4.886
			c-0.108-0.078-0.217-0.155-0.325-0.233c20.748-15.094,45.794-23.294,71.695-23.294s50.947,8.2,71.695,23.294
			C327.588,281.594,327.477,281.673,327.367,281.752z M343.168,268.137c-24.849-19.351-55.457-29.917-87.167-29.917
			c-31.71,0-62.318,10.566-87.167,29.917c-22.203-22.716-34.793-53.337-34.793-85.287c0-67.249,54.711-121.96,121.96-121.96
			s121.96,54.711,121.96,121.96C377.961,214.801,365.37,245.423,343.168,268.137z"/>
	</g>
</g>
<g>
	<g>
		<path d="M256.001,70.499c-5.523,0-10,4.477-10,10V95.55c0,5.524,4.477,10.001,10,10.001s10-4.477,10-10V80.499
			C266.001,74.976,261.524,70.499,256.001,70.499z"/>
	</g>
</g>
<g>
	<g>
		<path d="M201.342,114.049l-10.643-10.643c-3.904-3.906-10.237-3.905-14.142,0c-3.905,3.905-3.906,10.237-0.001,14.142
			l10.644,10.643c1.953,1.953,4.512,2.929,7.071,2.929s5.119-0.977,7.071-2.929C205.247,124.286,205.248,117.954,201.342,114.049z"
			/>
	</g>
</g>
<g>
	<g>
		<path d="M335.444,103.406c-3.905-3.905-10.237-3.905-14.142,0l-10.643,10.643c-3.905,3.905-3.905,10.237,0,14.142
			c1.953,1.953,4.512,2.929,7.071,2.929c2.559,0,5.119-0.977,7.071-2.929l10.643-10.643
			C339.349,113.643,339.349,107.311,335.444,103.406z"/>
	</g>
</g>
<g>
	<g>
		<path d="M300.024,138.825c-3.905-3.903-10.237-3.903-14.142,0.001l-12.389,12.389c-12.543-8.042-29.456-6.592-40.414,4.366
			c-12.639,12.639-12.639,33.205,0,45.844c6.32,6.319,14.621,9.48,22.922,9.48c8.301,0,16.603-3.16,22.922-9.48
			c9.35-9.351,11.775-23.037,7.29-34.646l13.811-13.811C303.929,149.063,303.929,142.731,300.024,138.825z M264.781,187.283
			c-4.841,4.842-12.719,4.842-17.56,0c-4.841-4.841-4.841-12.718,0-17.559c2.421-2.421,5.6-3.631,8.78-3.631
			c3.179,0,6.359,1.21,8.78,3.631C269.622,174.564,269.622,182.442,264.781,187.283z"/>
	</g>
</g>
<g>
	<g>
		<path d="M358.351,172.85H343.3c-5.523,0-10,4.477-10,10c0,5.523,4.477,10,10,10h15.051c5.523,0,10-4.477,10-10
			C368.351,177.327,363.874,172.85,358.351,172.85z"/>
	</g>
</g>
<g>
	<g>
		<path d="M168.702,172.85h-15.051c-5.523,0-10,4.477-10,10c0,5.523,4.477,10,10,10h15.051c5.523,0,10-4.477,10-10
			C178.702,177.327,174.225,172.85,168.702,172.85z"/>
	</g>
</g>
<g>
	<g>
		<path d="M300.233,79.574c-5.08-2.174-10.955,0.179-13.129,5.255l-5.925,13.836c-2.175,5.076,0.178,10.954,5.255,13.129
			c1.284,0.55,2.619,0.81,3.932,0.81c3.881,0,7.573-2.272,9.197-6.065l5.925-13.836C307.662,87.626,305.309,81.748,300.233,79.574z"
			/>
	</g>
</g>
<g>
	<g>
		<path d="M232.842,98.086l-5.593-13.973c-2.052-5.127-7.874-7.62-13-5.567c-5.127,2.052-7.62,7.873-5.567,13l5.593,13.973
			c1.564,3.909,5.319,6.286,9.287,6.286c1.237,0,2.495-0.231,3.713-0.719C232.402,109.034,234.896,103.214,232.842,98.086z"/>
	</g>
</g>
<g>
	<g>
		<path d="M360.305,141.099c-2.052-5.127-7.874-7.621-13-5.567l-13.973,5.593c-5.127,2.052-7.62,7.873-5.567,13
			c1.564,3.909,5.319,6.286,9.287,6.286c1.237,0,2.495-0.231,3.713-0.719l13.973-5.593
			C359.866,152.047,362.358,146.226,360.305,141.099z"/>
	</g>
</g>
<g>
	<g>
		<path d="M179.689,139.288l-13.835-5.926c-5.079-2.174-10.956,0.178-13.129,5.255c-2.175,5.076,0.178,10.955,5.255,13.129
			l13.835,5.926c1.284,0.55,2.619,0.81,3.932,0.81c3.88,0,7.573-2.272,9.197-6.065C187.118,147.34,184.765,141.462,179.689,139.288z
			"/>
	</g>
</g>
<g>
</g>
<g>
</g>
<g>
</g>
<g>
</g>
<g>
</g>
<g>
</g>
<g>
</g>
<g>
</g>
<g>
</g>
<g>
</g>
<g>
</g>
<g>
</g>
<g>
</g>
<g>
</g>
<g>
</g>
</svg>
