<?xml version="1.0" encoding="iso-8859-1"?>
<!-- Generator: Adobe Illustrator 19.0.0, SVG Export Plug-In . SVG Version: 6.00 Build 0)  -->
<svg version="1.1" id="Capa_1" xmlns="http://www.w3.org/2000/svg" xmlns:xlink="http://www.w3.org/1999/xlink" x="0px" y="0px"
	 viewBox="0 0 512 512" style="enable-background:new 0 0 512 512;" xml:space="preserve">
<g>
	<g>
		<path d="M377.469,112.69c-0.129-0.64-0.32-1.27-0.57-1.87c-0.25-0.61-0.56-1.19-0.92-1.73c-0.359-0.55-0.779-1.06-1.239-1.52
			c-0.46-0.46-0.971-0.88-1.521-1.24c-0.54-0.36-1.12-0.67-1.729-0.92c-0.601-0.25-1.23-0.44-1.87-0.57c-1.29-0.26-2.62-0.26-3.91,0
			c-0.641,0.13-1.26,0.32-1.87,0.57c-0.6,0.25-1.18,0.56-1.72,0.92c-0.551,0.36-1.06,0.78-1.52,1.24c-0.47,0.46-0.88,0.97-1.25,1.52
			c-0.359,0.54-0.67,1.12-0.92,1.73c-0.25,0.6-0.439,1.23-0.57,1.87c-0.13,0.64-0.19,1.3-0.19,1.95c0,0.65,0.06,1.31,0.19,1.95
			c0.131,0.64,0.32,1.27,0.57,1.87c0.25,0.61,0.561,1.19,0.92,1.73c0.37,0.55,0.78,1.06,1.25,1.52c0.46,0.46,0.97,0.88,1.52,1.25
			c0.54,0.36,1.12,0.66,1.72,0.91c0.61,0.25,1.229,0.45,1.87,0.57c0.649,0.13,1.31,0.2,1.96,0.2c0.649,0,1.31-0.07,1.95-0.2
			c0.64-0.12,1.27-0.32,1.87-0.57c0.609-0.25,1.189-0.55,1.729-0.91c0.55-0.37,1.061-0.79,1.521-1.25
			c0.46-0.46,0.88-0.97,1.239-1.52c0.36-0.54,0.67-1.12,0.92-1.73c0.25-0.6,0.44-1.23,0.57-1.87c0.13-0.64,0.2-1.3,0.2-1.95
			C377.669,113.99,377.599,113.33,377.469,112.69z"/>
	</g>
</g>
<g>
	<g>
		<path d="M502,57.142h-33.932V56.79c0-5.523-4.478-10-10-10h-53.137c-5.522,0-10,4.477-10,10v13.627H117.068V56.791
			c0-5.523-4.477-10-10-10H53.932c-5.523,0-10,4.477-10,10v0.352H10c-5.523,0-10,4.477-10,10v179.535c0,5.523,4.477,10,10,10h33.932
			v0.352c0,5.523,4.477,10,10,10h53.136c5.523,0,10-4.477,10-10v-13.627h277.864v13.627c0,5.523,4.478,10,10,10h53.137
			c5.522,0,10-4.477,10-10v-0.352H502c5.522,0,10-4.477,10-10V67.142C512,61.619,507.522,57.142,502,57.142z M43.932,236.677H20
			V77.142h23.932V236.677z M97.068,247.029H63.932v-0.352V67.142V66.79h33.136V247.029z M394.932,223.401H117.068V124.64H329
			c5.522,0,10-4.477,10-10s-4.478-10-10-10H117.068V90.418h277.864V223.401z M448.068,67.143v179.535v0.351h-33.137V66.791h33.137
			V67.143z M492,236.677h-23.932V77.142H492V236.677z"/>
	</g>
</g>
<g>
	<g>
		<path d="M439.78,349.054h-95.433c1.946-4.283,3.031-9.036,3.031-14.039c0-18.769-15.27-34.038-34.039-34.038h-18.644
			c-5.991-18.725-26.778-41-31.501-45.893c-1.884-1.952-4.48-3.055-7.194-3.055c-2.713,0-5.311,1.103-7.195,3.055
			c-4.723,4.893-25.51,27.168-31.501,45.893H72.22c-18.769,0-34.039,15.27-34.039,34.038c0,18.769,15.27,34.039,34.039,34.039
			h16.587c-1.947,4.283-3.031,9.036-3.031,14.039c0,5.911,1.514,11.475,4.176,16.324c-12.726,4.933-21.774,17.307-21.774,31.754
			c0,18.769,15.27,34.039,34.039,34.039h275.242c18.77,0,34.039-15.27,34.039-34.039c0-5.003-1.085-9.756-3.031-14.039h31.315
			c18.77,0,34.039-15.27,34.039-34.038C473.819,364.324,458.55,349.054,439.78,349.054z M256,276.902
			c10.743,12.53,20.328,26.884,20.328,33.294c0,0.469-0.039,0.928-0.07,1.389c-0.021,0.304-0.035,0.611-0.069,0.911
			c-0.038,0.337-0.098,0.668-0.153,1c-0.058,0.35-0.11,0.701-0.186,1.044c-0.051,0.232-0.118,0.458-0.177,0.687
			c-0.115,0.442-0.229,0.884-0.372,1.315c-0.03,0.089-0.066,0.175-0.097,0.264c-2.562,7.332-9.242,12.809-17.174,13.615
			c-0.668,0.066-1.344,0.103-2.029,0.103s-1.361-0.036-2.029-0.103c-7.971-0.81-14.682-6.337-17.215-13.725
			c-0.014-0.041-0.031-0.08-0.044-0.12c-0.16-0.477-0.288-0.966-0.413-1.458c-0.045-0.181-0.099-0.359-0.14-0.543
			c-0.087-0.389-0.148-0.787-0.211-1.184c-0.045-0.287-0.098-0.571-0.132-0.862c-0.04-0.344-0.057-0.695-0.079-1.045
			c-0.027-0.429-0.065-0.854-0.065-1.289C235.672,303.786,245.258,289.431,256,276.902z M439.78,397.131l-243.431,0.001
			c-5.523,0-10,4.477-10,10s4.477,10,10,10h181.138c7.728,0.016,14.01,6.306,14.01,14.038c0,7.741-6.298,14.039-14.039,14.039
			H102.216c-7.741,0-14.039-6.298-14.039-14.039c0-7.741,6.298-14.039,14.039-14.039h17.598c5.523,0,10-4.477,10-10s-4.477-10-10-10
			c-7.741,0-14.039-6.298-14.039-14.038c0-7.741,6.298-14.039,14.039-14.039c5.523,0,10-4.477,10-10s-4.477-10-10-10H72.22
			c-7.741,0-14.039-6.298-14.039-14.039c0-7.741,6.298-14.038,14.039-14.038h144.884c4.31,15.856,17.907,27.615,34.663,29.326
			c0.071,0.007,0.142,0.015,0.214,0.022c0.549,0.053,1.102,0.095,1.657,0.126c0.134,0.008,0.267,0.019,0.401,0.025
			c0.65,0.031,1.303,0.05,1.962,0.05c0.658,0,1.312-0.019,1.962-0.05c0.134-0.006,0.266-0.017,0.399-0.025
			c0.557-0.031,1.11-0.073,1.66-0.126c0.07-0.007,0.14-0.015,0.21-0.022c16.759-1.71,30.358-13.469,34.668-29.326h18.44
			c7.741,0,14.039,6.298,14.039,14.038c0,7.741-6.298,14.039-14.039,14.039c-5.522,0-10,4.477-10,10s4.478,10,10,10h126.44
			c7.741,0,14.039,6.298,14.039,14.039C453.819,390.833,447.522,397.131,439.78,397.131z"/>
	</g>
</g>
<g>
	<g>
		<path d="M167.49,405.18c-0.13-0.64-0.32-1.27-0.57-1.87c-0.25-0.61-0.56-1.19-0.92-1.73c-0.37-0.55-0.79-1.06-1.25-1.52
			c-0.46-0.46-0.97-0.88-1.52-1.24c-0.54-0.36-1.12-0.67-1.72-0.92c-0.61-0.25-1.24-0.44-1.87-0.57c-1.29-0.26-2.62-0.26-3.91,0
			c-0.64,0.13-1.27,0.32-1.87,0.57c-0.61,0.25-1.19,0.56-1.73,0.92c-0.55,0.36-1.06,0.78-1.52,1.24c-0.46,0.46-0.88,0.97-1.24,1.52
			c-0.36,0.539-0.67,1.12-0.92,1.73c-0.25,0.6-0.44,1.23-0.57,1.87s-0.2,1.3-0.2,1.95s0.07,1.31,0.2,1.96
			c0.13,0.64,0.32,1.26,0.57,1.87c0.25,0.6,0.56,1.18,0.92,1.72c0.36,0.55,0.78,1.06,1.24,1.52c0.46,0.46,0.97,0.88,1.52,1.25
			c0.54,0.36,1.12,0.67,1.73,0.92c0.6,0.25,1.23,0.44,1.87,0.57c0.64,0.13,1.3,0.19,1.95,0.19c0.65,0,1.31-0.06,1.96-0.19
			c0.63-0.13,1.26-0.32,1.87-0.57c0.6-0.25,1.18-0.56,1.72-0.92c0.55-0.37,1.06-0.79,1.52-1.25c0.46-0.46,0.88-0.97,1.25-1.52
			c0.36-0.54,0.67-1.12,0.92-1.72c0.25-0.61,0.44-1.23,0.57-1.87c0.13-0.65,0.19-1.31,0.19-1.96
			C167.68,406.48,167.62,405.82,167.49,405.18z"/>
	</g>
</g>
<g>
	<g>
		<path d="M270.141,186.915l13.082-13.082c3.906-3.904,3.906-10.236,0.001-14.141c-3.906-3.905-10.236-3.905-14.142,0L256,172.774
			l-13.081-13.081c-3.905-3.905-10.237-3.905-14.142,0c-3.905,3.905-3.906,10.237,0,14.142l13.082,13.082l-13.082,13.082
			c-3.905,3.905-3.905,10.237,0,14.142c1.953,1.953,4.512,2.929,7.071,2.929s5.119-0.977,7.071-2.929L256,201.058l13.081,13.081
			c1.953,1.953,4.512,2.929,7.071,2.929c2.559,0,5.118-0.977,7.071-2.929c3.905-3.905,3.905-10.237,0-14.142L270.141,186.915z"/>
	</g>
</g>
<g>
</g>
<g>
</g>
<g>
</g>
<g>
</g>
<g>
</g>
<g>
</g>
<g>
</g>
<g>
</g>
<g>
</g>
<g>
</g>
<g>
</g>
<g>
</g>
<g>
</g>
<g>
</g>
<g>
</g>
</svg>
